<svg width="22" height="22" viewBox="0 0 22 22" fill="none" xmlns="http://www.w3.org/2000/svg">
<mask id="path-1-outside-1_298_5440" maskUnits="userSpaceOnUse" x="0" y="9.16699" width="22" height="13" fill="black">
<rect fill="white" y="9.16699" width="22" height="13"/>
<path d="M20.7369 10.167H1.26318C1.22326 10.1673 1.18392 10.1778 1.14808 10.198C1.11225 10.2181 1.08086 10.2472 1.05626 10.2831C1.03165 10.3191 1.01448 10.3609 1.00602 10.4055C0.997555 10.4502 0.998024 10.4964 1.00739 10.5407L3.11582 20.1807C3.16634 20.3835 3.32161 21.0004 3.89477 21.0004H18.1053C18.6806 21.0004 18.8343 20.3829 18.8869 20.1704L20.9922 10.5407C21.0019 10.4964 21.0026 10.4501 20.9943 10.4054C20.986 10.3607 20.9688 10.3187 20.9442 10.2827C20.9196 10.2467 20.8882 10.2175 20.8523 10.1975C20.8163 10.1774 20.7769 10.167 20.7369 10.167ZM18.379 20.0152C18.2832 20.3985 18.1843 20.3985 18.1053 20.3985H3.89477C3.81634 20.3985 3.71792 20.3985 3.62371 20.0248L1.60055 10.7688H20.4001L18.379 20.0152Z"/>
</mask>
<path d="M20.7369 10.167H1.26318C1.22326 10.1673 1.18392 10.1778 1.14808 10.198C1.11225 10.2181 1.08086 10.2472 1.05626 10.2831C1.03165 10.3191 1.01448 10.3609 1.00602 10.4055C0.997555 10.4502 0.998024 10.4964 1.00739 10.5407L3.11582 20.1807C3.16634 20.3835 3.32161 21.0004 3.89477 21.0004H18.1053C18.6806 21.0004 18.8343 20.3829 18.8869 20.1704L20.9922 10.5407C21.0019 10.4964 21.0026 10.4501 20.9943 10.4054C20.986 10.3607 20.9688 10.3187 20.9442 10.2827C20.9196 10.2467 20.8882 10.2175 20.8523 10.1975C20.8163 10.1774 20.7769 10.167 20.7369 10.167ZM18.379 20.0152C18.2832 20.3985 18.1843 20.3985 18.1053 20.3985H3.89477C3.81634 20.3985 3.71792 20.3985 3.62371 20.0248L1.60055 10.7688H20.4001L18.379 20.0152Z" fill="#F8F7F3"/>
<path d="M20.7369 10.167L20.7371 9.46699H20.7369V10.167ZM1.26318 10.167V9.46698L1.25847 9.46701L1.26318 10.167ZM1.00739 10.5407L0.322459 10.6853L0.323554 10.6903L1.00739 10.5407ZM3.11582 20.1807L2.43198 20.3302L2.43414 20.3401L2.43657 20.3499L3.11582 20.1807ZM18.8869 20.1704L19.5664 20.3388L19.5687 20.3294L19.5708 20.3199L18.8869 20.1704ZM20.9922 10.5407L21.676 10.6902L21.6761 10.6899L20.9922 10.5407ZM18.379 20.0152L19.0581 20.1848L19.0607 20.1748L19.0629 20.1646L18.379 20.0152ZM3.62371 20.0248L2.93986 20.1743L2.94223 20.1851L2.94494 20.1959L3.62371 20.0248ZM1.60055 10.7688V10.0688H0.731015L0.916694 10.9183L1.60055 10.7688ZM20.4001 10.7688L21.0839 10.9183L21.2696 10.0688H20.4001V10.7688ZM20.7369 9.46699H1.26318V10.867H20.7369V9.46699ZM1.25847 9.46701C1.09657 9.4681 0.941368 9.51126 0.805445 9.58755L1.49072 10.8084C1.42646 10.8444 1.34995 10.8664 1.26789 10.867L1.25847 9.46701ZM0.805445 9.58755C0.670168 9.66349 0.56022 9.76852 0.478587 9.8878L1.63392 10.6785C1.60149 10.7259 1.55433 10.7727 1.49072 10.8084L0.805445 9.58755ZM0.478587 9.8878C0.397092 10.0069 0.343976 10.1396 0.318282 10.2751L1.69375 10.536C1.68498 10.5822 1.66622 10.6313 1.63392 10.6785L0.478587 9.8878ZM0.318282 10.2751C0.292587 10.4105 0.29397 10.5502 0.322477 10.6853L1.6923 10.3962C1.70208 10.4425 1.70252 10.4898 1.69375 10.536L0.318282 10.2751ZM0.323554 10.6903L2.43198 20.3302L3.79965 20.0311L1.69122 10.3912L0.323554 10.6903ZM2.43657 20.3499C2.46141 20.4495 2.53486 20.7597 2.72247 21.0482C2.92579 21.3609 3.30254 21.7004 3.89477 21.7004V20.3004C3.8851 20.3004 3.89812 20.3001 3.91394 20.3101C3.92334 20.3161 3.91512 20.3142 3.89614 20.285C3.87689 20.2554 3.85678 20.2134 3.838 20.1604C3.81956 20.1084 3.80717 20.0601 3.79506 20.0115L2.43657 20.3499ZM3.89477 21.7004H18.1053V20.3004H3.89477V21.7004ZM18.1053 21.7004C18.6987 21.7004 19.0761 21.3606 19.2801 21.045C19.4676 20.7548 19.541 20.4414 19.5664 20.3388L18.2074 20.0021C18.1946 20.054 18.1818 20.1042 18.163 20.158C18.1438 20.2125 18.1235 20.2553 18.1042 20.2852C18.0851 20.3146 18.077 20.3163 18.0868 20.3101C18.1029 20.2998 18.1159 20.3004 18.1053 20.3004V21.7004ZM19.5708 20.3199L21.676 10.6902L20.3083 10.3912L18.2031 20.0209L19.5708 20.3199ZM21.6761 10.6899C21.7057 10.5543 21.7078 10.4138 21.6825 10.2775L20.306 10.5332C20.2973 10.4864 20.298 10.4385 20.3083 10.3916L21.6761 10.6899ZM21.6825 10.2775C21.6572 10.1413 21.6041 10.0077 21.5223 9.8879L20.3662 10.6775C20.3336 10.6297 20.3147 10.5801 20.306 10.5332L21.6825 10.2775ZM21.5223 9.8879C21.4403 9.7679 21.3297 9.66228 21.1934 9.58622L20.5111 10.8087C20.4467 10.7728 20.3989 10.7254 20.3662 10.6775L21.5223 9.8879ZM21.1934 9.58622C21.0564 9.50978 20.9 9.46704 20.7371 9.46699L20.7367 10.867C20.6538 10.867 20.5763 10.8451 20.5111 10.8087L21.1934 9.58622ZM17.6999 19.8455C17.6821 19.9167 17.6697 19.9471 17.6674 19.9523C17.6644 19.959 17.6815 19.9166 17.7339 19.8627C17.7957 19.7991 17.8817 19.7451 17.983 19.7174C18.0648 19.695 18.1346 19.6985 18.1053 19.6985V21.0985C18.1156 21.0985 18.2273 21.102 18.3528 21.0677C18.4979 21.028 18.6294 20.95 18.7378 20.8385C18.9207 20.6503 19.0047 20.3986 19.0581 20.1848L17.6999 19.8455ZM18.1053 19.6985H3.89477V21.0985H18.1053V19.6985ZM3.89477 19.6985C3.86575 19.6985 3.93409 19.6951 4.01428 19.7167C4.11386 19.7435 4.19995 19.7959 4.26297 19.8597C4.31664 19.914 4.33493 19.9576 4.3329 19.9531C4.33148 19.95 4.3197 19.922 4.30248 19.8537L2.94494 20.1959C2.99796 20.4062 3.08237 20.6568 3.26734 20.8439C3.37655 20.9544 3.50784 21.0303 3.65088 21.0687C3.77452 21.1019 3.88457 21.0985 3.89477 21.0985V19.6985ZM4.30757 19.8753L2.2844 10.6194L0.916694 10.9183L2.93986 20.1743L4.30757 19.8753ZM1.60055 11.4688H20.4001V10.0688H1.60055V11.4688ZM19.7162 10.6194L17.6952 19.8657L19.0629 20.1646L21.0839 10.9183L19.7162 10.6194Z" fill="#F8F7F3" mask="url(#path-1-outside-1_298_5440)"/>
<path d="M13.5797 0.886664L13.5844 0.892868L18.5843 7.51314C18.5844 7.51319 18.5844 7.51323 18.5844 7.51328C18.6563 7.60837 18.6995 7.72036 18.7139 7.83497C18.7282 7.94964 18.7138 8.06757 18.6704 8.17602C18.627 8.28454 18.5546 8.38345 18.4556 8.45617C18.356 8.5294 18.2347 8.57187 18.1064 8.57195L13.5797 0.886664ZM13.5797 0.886664L13.5748 0.880674C13.4716 0.755983 13.3202 0.670617 13.1473 0.660665C12.9739 0.650684 12.8127 0.718612 12.696 0.833888C12.5808 0.947682 12.5161 1.09901 12.5032 1.25264C12.4904 1.40625 12.5289 1.56451 12.619 1.69533L12.6233 1.70164L12.6279 1.70775L17.6269 8.32683M13.5797 0.886664L17.6269 8.32683M17.6269 8.32683C17.6271 8.32709 17.6273 8.32736 17.6275 8.32762C17.6814 8.39937 17.7509 8.46072 17.8336 8.50425L17.9967 8.19454M17.6269 8.32683L17.9967 8.19454M17.9967 8.19454L17.8336 8.50425C17.9169 8.54809 18.0102 8.572 18.1064 8.57195L17.9967 8.19454ZM4.34218 8.21906L4.34209 8.21933L4.34218 8.21906ZM4.34218 8.21906C4.30817 8.20777 4.27649 8.18875 4.24906 8.16314C4.22163 8.13752 4.199 8.10584 4.18253 8.06999C4.16606 8.03413 4.15609 7.99485 4.15321 7.95448C4.15034 7.91411 4.15462 7.8735 4.16579 7.83507L9.42035 1.2704C9.42736 1.34973 9.40655 1.429 9.36249 1.4908L4.62563 8.11121C4.60431 8.14354 4.5775 8.17063 4.54681 8.19084C4.51612 8.21104 4.48217 8.22396 4.44701 8.22881C4.41185 8.23366 4.37619 8.23034 4.34218 8.21906ZM9.56418 0.812056L9.56379 0.811691C9.43969 0.695997 9.27005 0.633299 9.09223 0.653835C8.91552 0.674244 8.76649 0.772499 8.67043 0.90683L3.93663 7.52297C3.88762 7.588 3.85191 7.66105 3.82972 7.73732C3.80684 7.81598 3.79831 7.89813 3.8041 7.97935C3.80988 8.06057 3.83 8.14103 3.86448 8.21608C3.89897 8.29116 3.94779 8.36069 4.0102 8.41896C4.07272 8.47734 4.1478 8.52333 4.23197 8.55125C4.31635 8.57925 4.40605 8.58777 4.49483 8.57553C4.5835 8.5633 4.6666 8.53101 4.73928 8.48317C4.80946 8.43696 4.86799 8.37757 4.91342 8.31048L9.64713 1.69446L9.64747 1.69398C9.74249 1.56072 9.78295 1.39757 9.76899 1.23961C9.75504 1.08164 9.68625 0.926212 9.56418 0.812056Z" fill="#F8F7F3" stroke="#F8F7F3" stroke-width="0.7"/>
</svg>
