<svg width="22" height="22" viewBox="0 0 22 22" fill="none" xmlns="http://www.w3.org/2000/svg">
<path d="M10.9263 4.73144L11.0002 4.8125L11.0741 4.73139L11.9703 3.74744C14.019 1.50127 17.7935 2.26769 19.1603 5.11401C19.8001 6.44645 19.9506 8.38244 18.7676 10.8745C17.6309 13.2637 15.2696 16.135 11.0002 19.2694C6.73068 16.135 4.36817 13.2637 3.23276 10.8745C2.04977 8.38387 2.20141 6.44653 2.84007 5.11401C4.20681 2.26774 7.98133 1.50257 10.03 3.74878L10.9263 4.73144ZM10.9426 21.0817L11.0002 21.1223L11.0578 21.0817C20.6513 14.3193 22.1811 8.25919 20.519 4.56222C18.8644 0.881804 14.0483 -0.392912 11.1507 2.45352C11.0992 2.50253 11.049 2.55295 11 2.60472C10.9508 2.55274 10.9007 2.50204 10.8501 2.45262C7.95193 -0.392371 3.13542 0.882944 1.48087 4.56355C-0.181049 8.26053 1.34902 14.32 10.9426 21.0817Z" fill="#F8F7F3" stroke="#F8F7F3" stroke-width="0.2"/>
</svg>
