<svg width="15" height="17" viewBox="0 0 15 17" fill="none" xmlns="http://www.w3.org/2000/svg">
<path d="M7.5 2.25299C9.5025 2.25299 9.74 2.26055 10.5306 2.29711C11.3481 2.33493 12.19 2.52278 12.7856 3.12352C13.3869 3.72993 13.5675 4.57084 13.605 5.39788C13.6412 6.19529 13.6487 6.43483 13.6487 8.45451C13.6487 10.4742 13.6412 10.7137 13.605 11.5112C13.5681 12.3313 13.3775 13.1886 12.7856 13.7855C12.1844 14.3919 11.3513 14.5741 10.5306 14.6119C9.74 14.6485 9.5025 14.656 7.5 14.656C5.4975 14.656 5.26 14.6485 4.46938 14.6119C3.6625 14.5747 2.80125 14.3781 2.21438 13.7855C1.61625 13.1823 1.4325 12.3331 1.395 11.5112C1.35875 10.7137 1.35125 10.4742 1.35125 8.45451C1.35125 6.43483 1.35875 6.19529 1.395 5.39788C1.43188 4.58092 1.62437 3.71858 2.21438 3.12352C2.81437 2.51837 3.65125 2.33493 4.46938 2.29711C5.26 2.26055 5.4975 2.25299 7.5 2.25299ZM7.5 0.890137C5.46312 0.890137 5.2075 0.898962 4.4075 0.935523C3.24813 0.989104 2.09687 1.31437 1.25875 2.15969C0.4175 3.00816 0.098125 4.16677 0.045 5.33547C0.00875 6.14234 0 6.40016 0 8.45451C0 10.5089 0.00875 10.7667 0.045 11.5736C0.098125 12.7416 0.421875 13.9059 1.25875 14.7493C2.09938 15.5972 3.25 15.9199 4.4075 15.9735C5.2075 16.0101 5.46312 16.0189 7.5 16.0189C9.53687 16.0189 9.7925 16.0101 10.5925 15.9735C11.7513 15.9199 12.9038 15.594 13.7413 14.7493C14.5831 13.9002 14.9019 12.7423 14.955 11.5736C14.9913 10.7667 15 10.5089 15 8.45451C15 6.40016 14.9913 6.14234 14.955 5.33547C14.9019 4.16614 14.5787 3.00438 13.7413 2.15969C12.9019 1.31311 11.7481 0.988474 10.5925 0.935523C9.7925 0.898962 9.53687 0.890137 7.5 0.890137Z" fill="#BDB3A4"/>
<path d="M7.5 4.9248C5.5671 4.9248 4 6.50536 4 8.45485C4 10.4043 5.5671 11.9849 7.5 11.9849C9.43289 11.9849 11 10.4043 11 8.45485C11 6.50536 9.43289 4.9248 7.5 4.9248ZM7.5 10.7463C6.24529 10.7463 5.22801 9.72032 5.22801 8.45485C5.22801 7.18937 6.24529 6.16336 7.5 6.16336C8.75471 6.16336 9.77199 7.18937 9.77199 8.45485C9.77199 9.72032 8.75471 10.7463 7.5 10.7463Z" fill="#BDB3A4"/>
<path d="M11.5 4.9246C11.7761 4.9246 12 4.69882 12 4.42031C12 4.14179 11.7761 3.91602 11.5 3.91602C11.2239 3.91602 11 4.14179 11 4.42031C11 4.69882 11.2239 4.9246 11.5 4.9246Z" fill="#BDB3A4"/>
</svg>
