<svg width="22" height="22" fill="none" xmlns="http://www.w3.org/2000/svg"><mask id="a" maskUnits="userSpaceOnUse" x="0" y="9.167" width="22" height="13" fill="#000"><path fill="#fff" d="M0 9.167h22v13H0z"/><path d="M20.737 10.167H1.263c-.04 0-.08.01-.115.031a.275.275 0 00-.092.085.345.345 0 00-.049.258l2.109 9.64c.05.203.206.82.779.82h14.21c.576 0 .73-.618.782-.83l2.105-9.63a.342.342 0 00-.048-.258.273.273 0 00-.092-.085.236.236 0 00-.115-.031zm-2.358 9.848c-.096.383-.195.383-.274.383H3.895c-.079 0-.177 0-.271-.373L1.6 10.769h18.8l-2.022 9.246z"/></mask><path d="M20.737 10.167H1.263c-.04 0-.08.01-.115.031a.275.275 0 00-.092.085.345.345 0 00-.049.258l2.109 9.64c.05.203.206.82.779.82h14.21c.576 0 .73-.618.782-.83l2.105-9.63a.342.342 0 00-.048-.258.273.273 0 00-.092-.085.236.236 0 00-.115-.031zm-2.358 9.848c-.096.383-.195.383-.274.383H3.895c-.079 0-.177 0-.271-.373L1.6 10.769h18.8l-2.022 9.246z" fill="#F8F7F3"/><path d="M20.737 10.167v-.7.7zm-19.474 0v-.7h-.005l.005.7zm-.256.374l-.685.144.002.005.683-.15zm2.109 9.64l-.684.15.002.01.003.009.679-.17zm15.77-.01l.68.168.003-.01.002-.01-.684-.149zm2.106-9.63l.684.15v-.001l-.684-.15zm-2.613 9.474l.68.17.002-.01.002-.01-.684-.15zm-14.755.01l-.684.15.002.01.003.01.679-.17zM1.6 10.769v-.7H.73l.186.85.684-.15zm18.8 0l.683.15.186-.85h-.87v.7zm.336-1.302H1.263v1.4h19.474v-1.4zm-19.479 0a.938.938 0 00-.453.12l.686 1.221a.463.463 0 01-.223.059l-.01-1.4zm-.453.12a.975.975 0 00-.326.3l1.155.791a.425.425 0 01-.143.13l-.686-1.22zm-.326.3c-.082.12-.135.253-.16.388l1.375.261a.377.377 0 01-.06.143L.479 9.887zm-.16.388c-.026.136-.025.275.003.41l1.37-.289c.01.046.01.094.002.14l-1.376-.26zm.005.415l2.108 9.64 1.368-.299-2.109-9.64-1.367.3zm2.113 9.66c.024.1.098.41.285.698.204.313.58.652 1.173.652v-1.4c-.01 0 .003 0 .019.01.01.006.001.004-.018-.025a.605.605 0 01-.058-.125c-.018-.052-.03-.1-.043-.148l-1.358.338zm1.458 1.35h14.21v-1.4H3.895v1.4zm14.21 0c.594 0 .971-.34 1.175-.655.188-.29.261-.604.286-.706l-1.359-.337a1.669 1.669 0 01-.044.156.622.622 0 01-.059.127c-.019.03-.027.031-.017.025.016-.01.029-.01.018-.01v1.4zm1.466-1.38l2.105-9.63-1.368-.299-2.105 9.63 1.368.299zm2.105-9.63a1.04 1.04 0 00.007-.412l-1.377.255a.355.355 0 01.002-.141l1.368.298zm.007-.412a1.022 1.022 0 00-.16-.39l-1.157.79a.379.379 0 01-.06-.145l1.377-.255zm-.16-.39a.974.974 0 00-.33-.302l-.682 1.223a.426.426 0 01-.145-.131l1.156-.79zm-.33-.302a.937.937 0 00-.456-.119v1.4a.463.463 0 01-.226-.058l.682-1.223zM17.7 19.846a.753.753 0 01-.033.106c-.003.007.014-.035.067-.09a.553.553 0 01.249-.145c.082-.022.152-.018.122-.018v1.4c.01 0 .122.003.248-.031a.847.847 0 00.385-.23c.183-.188.267-.44.32-.653l-1.358-.34zm.405-.148H3.895v1.4h14.21v-1.4zm-14.21 0c-.03 0 .04-.003.12.019a.555.555 0 01.248.143c.054.054.072.098.07.093a.696.696 0 01-.03-.1l-1.358.343c.053.21.137.46.322.648.11.11.24.186.384.225.124.033.234.03.244.03v-1.4zm.413.177L2.284 10.62l-1.367.3 2.023 9.255 1.368-.299zM1.6 11.47h18.8v-1.4H1.6v1.4zm18.115-.85l-2.02 9.247 1.367.299 2.02-9.247-1.367-.299z" fill="#F8F7F3" mask="url(#a)"/><path d="M13.58.887l.004.006 5 6.62s0 0 0 0a.69.69 0 01.086.663.643.643 0 01-.214.28.59.59 0 01-.35.116L13.58.887zm0 0L13.575.88a.6.6 0 00-.428-.22.593.593 0 00-.451.173.682.682 0 00-.077.861l.004.007.005.006 4.999 6.619M13.58.887l4.047 7.44m0 0s0 0 0 0a.619.619 0 00.207.177l.163-.31m-.37.133l.37-.132m0 0l-.163.31a.585.585 0 00.272.067l-.11-.377zm-13.655.024h0zm0 0a.254.254 0 01-.093-.056.297.297 0 01-.066-.093.334.334 0 01-.017-.235L9.42 1.27a.331.331 0 01-.058.22L4.626 8.112a.278.278 0 01-.08.08.232.232 0 01-.205.028zM9.564.812h0a.591.591 0 00-.894.095L3.937 7.523a.665.665 0 00-.133.456.684.684 0 00.206.44.581.581 0 00.73.064.628.628 0 00.173-.173l4.734-6.616h0a.681.681 0 00-.083-.882z" fill="#F8F7F3" stroke="#F8F7F3" stroke-width=".7"/></svg>