<svg width="22" height="22" fill="none" xmlns="http://www.w3.org/2000/svg"><path d="M10.926 4.731l.074.082.074-.082.896-.984c2.049-2.246 5.824-1.48 7.19 1.367.64 1.332.79 3.268-.392 5.76-1.137 2.39-3.498 5.261-7.768 8.395-4.27-3.134-6.632-6.005-7.767-8.394C2.05 8.383 2.2 6.446 2.84 5.113c1.367-2.846 5.141-3.611 7.19-1.365l.896.982zm.017 16.35l.057.041.058-.04c9.593-6.763 11.123-12.823 9.461-16.52-1.655-3.68-6.47-4.955-9.368-2.108a4.275 4.275 0 00-.151.15l-.15-.151C7.952-.392 3.135.883 1.48 4.563c-1.66 3.699-.13 9.757 9.464 16.52z" fill="#F8F7F3" stroke="#F8F7F3" stroke-width=".2"/></svg>