<svg width="15" height="17" fill="none" xmlns="http://www.w3.org/2000/svg"><path d="M7.5 2.253c2.002 0 2.24.008 3.03.044.818.038 1.66.226 2.256.827.6.606.782 1.447.819 2.274.036.797.044 1.037.044 3.057s-.008 2.259-.044 3.056c-.037.82-.228 1.678-.82 2.275-.6.606-1.434.788-2.254.826-.791.037-1.029.044-3.031.044-2.003 0-2.24-.008-3.03-.044-.807-.037-1.669-.234-2.256-.826-.598-.604-.781-1.453-.819-2.275-.036-.797-.044-1.037-.044-3.056 0-2.02.008-2.26.044-3.057.037-.817.23-1.68.82-2.274.6-.606 1.436-.79 2.254-.827.791-.036 1.028-.044 3.031-.044zM7.5.89C5.463.89 5.207.9 4.407.936c-1.159.053-2.31.378-3.148 1.224C.418 3.008.099 4.167.045 5.335.009 6.142 0 6.4 0 8.455c0 2.054.009 2.312.045 3.119.053 1.168.377 2.332 1.214 3.175.84.848 1.991 1.17 3.148 1.224.8.037 1.056.046 3.093.046s2.293-.009 3.092-.045c1.16-.054 2.312-.38 3.15-1.225.841-.849 1.16-2.007 1.213-3.175.036-.807.045-1.065.045-3.12 0-2.054-.009-2.312-.045-3.119-.053-1.169-.376-2.33-1.214-3.175-.84-.847-1.993-1.172-3.149-1.224C9.792.899 9.537.89 7.5.89z" fill="#BDB3A4"/><path d="M7.5 4.925c-1.933 0-3.5 1.58-3.5 3.53 0 1.95 1.567 3.53 3.5 3.53s3.5-1.58 3.5-3.53c0-1.95-1.567-3.53-3.5-3.53zm0 5.821a2.282 2.282 0 01-2.272-2.291A2.282 2.282 0 017.5 6.163a2.282 2.282 0 012.272 2.292A2.282 2.282 0 017.5 10.746zm4-5.821c.276 0 .5-.226.5-.505a.502.502 0 00-.5-.504c-.276 0-.5.226-.5.504 0 .279.224.505.5.505z" fill="#BDB3A4"/></svg>